# xmcd CD database file
#
# Track frame offsets:
#	180
#	34612
#	72895
#	95284
#	107048
#	131283
#	157335
#	209097
#	233506
#	282338
#
# Disc length: 4035 seconds
#
# Revision: 0
# Processed by: cddbd v1.5.1PL0 Copyright (c) Steve Scherf et al.
# Submitted via: CDex 1.51
#
DISCID=890fc10a
DTITLE=Roland Guerin - The Winds Of The New Land
DYEAR=1997
DGENRE=Jazz
TTITLE0=Slap Happy
TTITLE1=Children of the Light
TTITLE2=Perfect Will of God
TTITLE3=From That Moment On
TTITLE4=The Neverending Story
TTITLE5=Happy Days
TTITLE6=I'm Crying Out
TTITLE7=Ethereal
TTITLE8=The Winds of the New Land
TTITLE9=Vision
EXTD=YEAR: 1997
EXTT0=
EXTT1=
EXTT2=
EXTT3=
EXTT4=
EXTT5=
EXTT6=
EXTT7=
EXTT8=
EXTT9=
PLAYORDER=
